<?xml version="1.0" standalone="no"?><!DOCTYPE svg PUBLIC "-//W3C//DTD SVG 1.1//EN" "http://www.w3.org/Graphics/SVG/1.1/DTD/svg11.dtd"><svg t="1776324870031" class="icon" viewBox="0 0 1024 1024" version="1.1" xmlns="http://www.w3.org/2000/svg" p-id="44642" xmlns:xlink="http://www.w3.org/1999/xlink" width="200" height="200"><path d="M246.4512 98.6112c39.5008 0 76.6208 15.36 104.5504 43.3152a146.8928 146.8928 0 0 1 43.3152 104.5248v147.8656H246.4512c-39.4752 0-76.6208-15.36-104.5248-43.3152a146.8928 146.8928 0 0 1-43.3152-104.5504c0-39.4752 15.36-76.6208 43.3152-104.5248a146.8928 146.8928 0 0 1 104.5248-43.3152z m0-78.848a226.688 226.688 0 1 0 0 453.376h175.616a51.0976 51.0976 0 0 0 51.0976-51.072v-175.616A226.688 226.688 0 0 0 246.4512 19.7632z m0 607.2832h147.8656v147.84c0 39.5008-15.36 76.6208-43.3152 104.5504a146.8928 146.8928 0 0 1-104.5504 43.3152c-39.4752 0-76.6208-15.3856-104.5248-43.3152a146.8928 146.8928 0 0 1-43.3152-104.5504c0-39.5008 15.36-76.6208 43.3152-104.5504a146.8672 146.8672 0 0 1 104.5248-43.2896z m0-78.848a226.688 226.688 0 1 0 226.7136 226.688v-175.616a51.0976 51.0976 0 0 0-51.0976-51.072h-175.616zM774.912 98.6112c39.5008 0 76.6208 15.36 104.5504 43.3152a146.8928 146.8928 0 0 1 43.3152 104.5248c0 39.5008-15.3856 76.6208-43.3152 104.5504a146.8672 146.8672 0 0 1-104.5504 43.3152h-147.84V246.4512c0-39.4752 15.36-76.6208 43.2896-104.5248a146.8928 146.8928 0 0 1 104.5504-43.3152z m0-78.848a226.688 226.688 0 0 0-226.688 226.688v175.616c0 28.2112 22.8608 51.0976 51.072 51.0976h175.616a226.688 226.688 0 0 0 0-453.4016z m0 607.2832c39.5008 0 76.6208 15.36 104.5504 43.2896a146.8928 146.8928 0 0 1 43.3152 104.5504c0 39.5008-15.3856 76.6208-43.3152 104.5504a146.8672 146.8672 0 0 1-104.5504 43.3152c-39.5008 0-76.6208-15.3856-104.5504-43.3152a146.8928 146.8928 0 0 1-43.2896-104.5504v-147.84h147.84z m0-78.848h-175.616a51.0976 51.0976 0 0 0-51.072 51.072v175.616a226.688 226.688 0 1 0 226.688-226.688z" fill="#0D9613" p-id="44643"></path></svg>