<?xml version="1.0" standalone="no"?><!DOCTYPE svg PUBLIC "-//W3C//DTD SVG 1.1//EN" "http://www.w3.org/Graphics/SVG/1.1/DTD/svg11.dtd"><svg t="1776324519374" class="icon" viewBox="0 0 1260 1024" version="1.1" xmlns="http://www.w3.org/2000/svg" p-id="26964" xmlns:xlink="http://www.w3.org/1999/xlink" width="246.09375" height="200"><path d="M1056.846769 936.211692a516.174769 516.174769 0 0 0 113.427693-321.811692c0-290.422154-242.254769-526.611692-540.120616-526.611692-297.865846 0-540.120615 236.189538-540.120615 526.611692 0 116.736 40.014769 229.612308 113.427692 321.811692h853.385846z" fill="#74D99F" p-id="26965"></path><path d="M630.153846 307.2c-11.933538 0-23.394462-4.608-31.822769-12.839385a43.323077 43.323077 0 0 1-13.193846-31.035077V175.537231c0-15.675077 8.585846-30.168615 22.528-38.006154 13.902769-7.876923 31.074462-7.876923 44.977231 0 13.942154 7.876923 22.528 22.331077 22.528 38.006154v87.788307C675.170462 287.507692 654.966154 307.2 630.153846 307.2z m-286.444308-34.107077l63.606154 62.030769c12.051692 10.909538 17.014154 27.411692 12.918154 42.929231-4.056615 15.556923-16.541538 27.726769-32.452923 31.704615-15.950769 3.938462-32.846769-0.866462-44.110769-12.603076L280.142769 335.123692a43.165538 43.165538 0 0 1-12.957538-42.968615c4.096-15.556923 16.541538-27.687385 32.492307-31.665231 15.950769-3.977846 32.846769 0.866462 44.071385 12.603077z m-73.64923 297.432615c16.068923 0 30.956308 8.349538 38.990769 21.937231 8.034462 13.587692 8.034462 30.326154 0 43.874462a45.252923 45.252923 0 0 1-38.990769 21.937231H180.027077c-16.068923 0-30.916923-8.349538-38.990769-21.937231a42.929231 42.929231 0 0 1 0-43.874462c8.073846-13.587692 22.921846-21.937231 38.990769-21.937231h90.033231z m810.220307 0c16.068923 0 30.916923 8.349538 38.99077 21.937231 8.034462 13.587692 8.034462 30.326154 0 43.874462a45.252923 45.252923 0 0 1-38.99077 21.937231h-90.03323c-16.068923 0-30.956308-8.349538-38.99077-21.937231a42.929231 42.929231 0 0 1 0-43.874462c8.034462-13.587692 22.921846-21.937231 38.99077-21.937231h90.03323z m-100.036923-297.432615c17.604923 17.132308 17.604923 44.898462 0 62.030769l-63.645538 62.03077c-8.428308 8.231385-19.849846 12.878769-31.783385 12.878769-11.972923 0-23.394462-4.647385-31.822769-12.878769a43.126154 43.126154 0 0 1 0-62.03077l63.606154-62.030769a45.843692 45.843692 0 0 1 63.606154 0h0.078769z m76.603077 663.118769a516.174769 516.174769 0 0 0 113.427693-321.811692c0-290.422154-242.254769-526.611692-540.120616-526.611692-297.865846 0-540.120615 236.189538-540.120615 526.611692 0 116.736 40.014769 229.612308 113.427692 321.811692h853.385846zM630.153846 0c348.041846 0 630.153846 275.062154 630.153846 614.4 0 157.577846-61.400615 300.898462-161.437538 409.6H161.437538C57.462154 911.635692-0.039385 765.715692 0 614.4 0 275.062154 282.190769 0 630.153846 0z m-42.417231 573.046154c23.394462-22.843077 125.046154-84.913231 148.519385-62.109539 23.394462 22.882462-40.172308 122.013538-63.684923 144.817231a61.046154 61.046154 0 0 1-58.368 15.990154 59.273846 59.273846 0 0 1-42.850462-41.826462c-5.513846-20.440615 0.787692-42.180923 16.384-56.871384z" fill="#808488" p-id="26966"></path></svg>