<?xml version="1.0" standalone="no"?><!DOCTYPE svg PUBLIC "-//W3C//DTD SVG 1.1//EN" "http://www.w3.org/Graphics/SVG/1.1/DTD/svg11.dtd"><svg t="1776324579040" class="icon" viewBox="0 0 1024 1024" version="1.1" xmlns="http://www.w3.org/2000/svg" p-id="29649" xmlns:xlink="http://www.w3.org/1999/xlink" width="200" height="200"><path d="M550.4 64c-124.416 0-225.28 100.864-225.28 225.28 0 195.584 225.28 317.952 225.28 317.952s225.28-136.192 225.28-317.952c0-124.416-100.864-225.28-225.28-225.28z m0 298.496c-48.64 0-87.552-39.424-87.552-87.552s39.424-87.552 87.552-87.552 87.552 39.424 87.552 87.552-38.912 87.552-87.552 87.552z" fill="#6DAA39" p-id="29650"></path><path d="M550.4 893.44c0 36.864 29.696 66.56 66.56 66.56s66.56-29.696 66.56-66.56-29.696-66.56-66.56-66.56-66.56 30.208-66.56 66.56z" fill="#ACED7A" p-id="29651"></path><path d="M769.536 936.96h-118.784c-24.064 0-43.52-19.456-43.52-43.52s19.456-43.52 43.52-43.52h118.784c22.016 0 39.424-17.92 39.424-39.424 0-22.016-17.92-39.424-39.424-39.424H244.736c-64.512 0-116.736-52.224-116.736-116.736S180.224 537.6 244.736 537.6h131.584c24.064 0 43.52 19.456 43.52 43.52s-19.456 43.008-43.52 43.008H244.736c-16.384 0-30.208 13.312-30.208 30.208s13.312 30.208 30.208 30.208h524.8c69.632 0 126.464 56.832 126.464 126.464S839.168 936.96 769.536 936.96z" fill="#ACED7A" p-id="29652"></path></svg>