<?xml version="1.0" standalone="no"?><!DOCTYPE svg PUBLIC "-//W3C//DTD SVG 1.1//EN" "http://www.w3.org/Graphics/SVG/1.1/DTD/svg11.dtd"><svg t="1776324932935" class="icon" viewBox="0 0 1024 1024" version="1.1" xmlns="http://www.w3.org/2000/svg" p-id="49137" xmlns:xlink="http://www.w3.org/1999/xlink" width="200" height="200"><path d="M724.945455 775.447273l-20.014546 20.829091c0 21.015273-8.448 58.88-29.44 58.88H322.304c-20.992 0-27.461818-34.210909-27.461818-55.202909V775.447273C169.006545 698.414545 92.090182 565.341091 92.090182 418.257455v-1.512728C92.066909 187.461818 277.946182 1.559273 507.229091 1.559273h0.977454c227.234909 0 428.683636 184.482909 432.174546 412.090182 0 147.083636-89.553455 284.765091-215.435636 361.797818z m9.425454-361.797818c1.117091 17.803636 25.530182 15.127273 25.530182 15.127272a36.352 36.352 0 0 0 27.997091-42.007272C756.410182 246.690909 627.083636 142.033455 476.904727 142.336c-20.968727 0-35.165091 13.312-35.165091 34.304 0 21.015273 6.749091 30.952727 27.717819 30.952727 118.877091 0 257.745455 81.128727 264.913454 206.056728z m-58.88 588.660363H351.720727v-58.88h323.770182v58.88z" fill="#38C790" p-id="49138"></path></svg>