<?xml version="1.0" standalone="no"?><!DOCTYPE svg PUBLIC "-//W3C//DTD SVG 1.1//EN" "http://www.w3.org/Graphics/SVG/1.1/DTD/svg11.dtd"><svg t="1776324615019" class="icon" viewBox="0 0 1887 1024" version="1.1" xmlns="http://www.w3.org/2000/svg" p-id="31537" xmlns:xlink="http://www.w3.org/1999/xlink" width="368.5546875" height="200"><path d="M1259.9447 72.700461h-62.967741c-19.907834 0-36.129032 16.368664-36.129033 36.571428 0 20.202765 16.221198 36.571429 36.129033 36.571429h62.967741c24.479263 0 44.534562 20.202765 44.534563 45.124424v714.617511c0 24.921659-19.907834 45.124424-44.534563 45.124424H627.023041c-24.479263 0-44.534562-20.202765-44.534562-45.124424V191.115207c0-24.921659 19.907834-45.124424 44.534562-45.124424H691.612903c19.907834 0 36.129032-16.368664 36.129032-36.571428 0-20.202765-16.221198-36.571429-36.129032-36.571429h-64.589862c-64.294931 0-116.792627 53.087558-116.792626 118.267281v714.617512c0 65.179724 52.35023 118.267281 116.792626 118.267281h632.921659c64.294931 0 116.792627-53.087558 116.792627-118.267281V191.115207c-0.147465-65.327189-52.497696-118.414747-116.792627-118.414746z m-410.838709 146.43318h188.165898c47.778802 0 86.709677-39.373272 86.709678-87.741936V87.741935c0-48.368664-38.930876-87.741935-86.709678-87.741935H849.105991C801.327189 0 762.396313 39.373272 762.396313 87.741935V131.24424c0.147465 48.516129 38.930876 87.889401 86.709678 87.889401zM834.654378 87.741935c0-8.110599 6.488479-14.599078 14.451613-14.599078h188.165898c7.963134 0 14.451613 6.635945 14.451613 14.599078V131.24424c0 8.110599-6.488479 14.599078-14.451613 14.599078H849.105991c-7.963134 0-14.451613-6.635945-14.451613-14.599078V87.741935z" fill="#2E9571" p-id="31538"></path><path d="M756.0553 836.423963c-3.24424 0-6.488479-0.589862-9.732719-1.769585-14.156682-5.308756-21.235023-21.087558-15.926268-35.096774 1.327189-3.539171 33.769585-88.626728 98.949309-186.986175 38.488479-58.101382 80.368664-108.682028 124.46083-150.562212 55.889401-53.087558 115.907834-92.165899 177.990783-116.202765 14.009217-5.456221 29.788018 1.62212 35.24424 15.631336 5.456221 14.009217-1.62212 29.788018-15.631337 35.24424-126.082949 48.81106-219.723502 160.147465-276.055299 244.940092-62.082949 93.493088-93.788018 176.368664-94.08295 177.253456-3.834101 10.912442-14.304147 17.548387-25.216589 17.548387z" fill="#2E9571" p-id="31539"></path><path d="M756.0553 840.110599c-3.686636 0-7.373272-0.737327-10.912443-2.064516-15.926267-6.046083-23.889401-23.889401-17.990783-39.815668 1.327189-3.539171 33.917051-88.921659 99.391705-187.723503 38.635945-58.248848 80.663594-109.124424 125.050691-151.299539 56.331797-53.382488 116.645161-92.75576 179.170507-116.940092 3.539171-1.327189 7.373272-2.064516 11.207373-2.064516 12.682028 0 24.184332 7.963134 28.755761 19.760369 2.949309 7.668203 2.801843 16.073733-0.589862 23.59447s-9.437788 13.271889-17.105991 16.368663c-125.198157 48.516129-218.248848 159.262673-274.285714 243.612904-61.935484 93.345622-93.493088 175.631336-93.788019 176.516129-4.571429 11.9447-16.221198 20.0553-28.903225 20.055299z m385.769585-492.682028c-2.949309 0-5.751152 0.589862-8.552996 1.62212-61.640553 23.889401-121.21659 62.672811-176.81106 115.465438-43.9447 41.732719-85.677419 92.165899-124.018433 149.97235-64.884793 98.064516-97.327189 182.709677-98.654378 186.248848-4.571429 12.239631 1.62212 25.953917 13.714286 30.525346 2.654378 1.032258 5.456221 1.474654 8.40553 1.474654 9.732719 0 18.728111-6.193548 22.119816-15.336405 0.294931-0.884793 32-83.907834 94.525345-177.990784C929.327189 554.322581 1023.410138 442.396313 1150.37788 393.290323c5.898618-2.211982 10.617512-6.78341 13.124424-12.534563 2.506912-5.751152 2.654378-12.239631 0.442396-18.138248-3.539171-8.995392-12.387097-15.18894-22.119815-15.188941z" fill="#2E9570" p-id="31540"></path><path d="M941.271889 786.285714c-28.75576 0-57.658986-5.16129-86.119815-15.483871-49.253456-17.843318-80.221198-45.124424-81.548387-46.304147-7.520737-6.78341-10.470046-16.663594-8.552996-25.953917-11.502304-24.036866-52.497696-122.83871-2.506912-219.428572 49.105991-94.672811 167.963134-154.101382 353.327189-176.368663 2.359447-0.294931 4.718894-0.442396 7.078341-0.442397h32.294931c31.262673 0 57.364055 24.479263 59.281106 55.741936 2.949309 46.599078-1.769585 128.737327-24.479263 207.631336-27.723502 96.147465-75.502304 163.24424-137.880184 194.064516-35.686636 17.695853-73.142857 26.543779-110.89401 26.543779z m-122.248848-95.262673c10.764977 7.668203 30.525346 20.202765 56.479263 29.198157 51.760369 18.138249 103.078341 15.041475 152.626728-9.290322 61.050691-30.082949 93.345622-103.668203 109.566821-160.294931 20.792627-72.110599 25.069124-146.875576 22.414746-189.050692-0.147465-2.506912-2.211982-4.571429-4.866359-4.571428H1122.359447c-91.576037 11.059908-165.603687 31.410138-219.870968 60.75576-43.059908 23.447005-73.732719 52.497696-91.428571 86.562212-43.207373 83.317972 4.276498 172.976959 4.718894 173.861751 2.211982 3.981567 3.24424 8.40553 3.244239 12.829493z" fill="#2E9571" p-id="31541"></path><path d="M941.271889 789.97235c-29.198157 0-58.691244-5.308756-87.299539-15.631336-49.843318-17.990783-81.400922-45.714286-82.72811-46.894009-7.963134-7.078341-11.64977-17.695853-9.880185-28.165899-13.714286-29.050691-51.465438-125.935484-1.91705-221.640553 49.695853-95.852535 169.437788-155.870968 356.129032-178.285714 2.506912-0.294931 5.013825-0.442396 7.520737-0.442397h32.294931c33.179724 0 60.75576 25.953917 62.820277 59.133641 2.949309 46.746544-1.769585 129.62212-24.626729 208.81106-28.018433 97.179724-76.387097 165.013825-139.797235 196.276498-36.129032 17.695853-74.02765 26.83871-112.516129 26.838709z m181.824885-483.834101c-2.211982 0-4.571429 0.147465-6.78341 0.442396-184.184332 22.119816-302.009217 80.81106-350.525346 174.451613-48.663594 94.082949-10.470046 189.345622 2.506913 216.331797l0.589862 1.032258-0.294931 1.179724c-1.769585 8.258065 1.179724 16.958525 7.373272 22.562212 1.327189 1.179724 31.852535 28.018433 80.368663 45.56682 27.870968 10.02765 56.479263 15.18894 84.940092 15.18894 37.456221 0 74.175115-8.847926 109.419355-26.101382 61.493088-30.37788 108.534562-96.589862 136.110599-191.852535 22.562212-78.304147 27.281106-160.147465 24.331798-206.304147-1.769585-29.345622-26.248848-52.35023-55.741936-52.350231h-32.294931zM941.419355 735.410138c-22.119816 0-44.682028-3.981567-67.096774-11.797235-25.511521-8.995392-45.271889-21.087558-57.364056-29.788018l-1.474654-1.032258v-1.769586c0-3.834101-1.032258-7.668203-2.801843-11.059907-0.442396-0.884793-48.81106-92.165899-4.718894-177.253457 17.990783-34.654378 49.253456-64.294931 93.050691-87.889401 54.709677-29.640553 129.032258-50.138249 221.198157-61.198156H1155.539171c4.423963 0 8.110599 3.539171 8.405529 7.963133 2.654378 42.470046-1.62212 117.824885-22.562212 190.230415-16.516129 57.21659-49.253456 131.834101-111.48387 162.506913-28.903226 14.009217-58.691244 21.087558-88.479263 21.087557z m-118.857143-46.304147c11.797235 8.258065 30.37788 19.465438 54.119816 27.723502 21.529954 7.520737 43.354839 11.502304 64.737327 11.502304 28.75576 0 57.364055-6.930876 85.087557-20.645161 59.870968-29.493088 91.576037-102.193548 107.797235-157.935484 20.645161-71.668203 24.921659-145.990783 22.414747-187.870968 0-0.737327-0.589862-1.179724-1.179723-1.179723h-32.294931-0.147466c-91.133641 10.912442-164.718894 31.262673-218.543779 60.460829-42.470046 23.004608-72.700461 51.465438-90.101382 84.940092-42.175115 81.400922 4.129032 169.585253 4.718894 170.470047 1.917051 3.834101 3.096774 8.110599 3.391705 12.534562z" fill="#2E9570" p-id="31542"></path><path d="M862.37788 639.852535c-10.02765 0-19.612903-5.456221-24.331797-15.041475-6.78341-13.419355-1.474654-29.935484 12.092166-36.718894 4.276498-2.211982 105.880184-52.792627 194.506912-31.852535 14.599078 3.391705 23.741935 18.138249 20.350231 32.884793-3.391705 14.599078-18.138249 23.741935-32.884793 20.35023-57.658986-13.56682-133.16129 15.18894-157.493087 27.428572-3.834101 2.064516-8.110599 2.949309-12.239632 2.949309z" fill="#2E9571" p-id="31543"></path><path d="M862.37788 643.539171c-11.797235 0-22.267281-6.488479-27.576037-16.958526-7.668203-15.18894-1.62212-33.769585 13.566821-41.437788 2.949309-1.474654 74.617512-37.308756 150.267281-37.308756 16.516129 0 32.294931 1.769585 46.746543 5.161291 7.963134 1.917051 14.894009 6.78341 19.170507 13.861751 4.276498 7.078341 5.751152 15.336406 3.834102 23.299539-3.24424 14.009217-15.631336 23.741935-30.08295 23.741936-2.359447 0-4.718894-0.294931-7.078341-0.884793-9.732719-2.359447-20.645161-3.391705-32.29493-3.391705-49.105991 0-101.751152 20.0553-122.691245 30.672811-4.276498 2.064516-8.995392 3.24424-13.861751 3.24424z m136.40553-88.626729c-74.02765 0-144.073733 35.096774-147.023041 36.571429-11.64977 5.898618-16.368664 20.202765-10.470046 31.852535 4.129032 7.963134 12.239631 12.976959 21.235023 12.976958 3.686636 0 7.373272-0.884793 10.617511-2.506912 21.529954-10.912442 75.502304-31.410138 125.935484-31.410139 12.239631 0 23.59447 1.179724 33.917051 3.686636 1.769585 0.442396 3.686636 0.589862 5.456221 0.589862 11.059908 0 20.497696-7.520737 23.004608-18.285714 1.474654-6.193548 0.442396-12.534562-2.949309-17.843318-3.391705-5.308756-8.552995-9.142857-14.746543-10.617512-13.861751-3.391705-29.050691-5.013825-44.976959-5.013825z" fill="#2E9570" p-id="31544"></path><path d="M971.502304 493.419355c-0.884793 0-1.62212 0-2.506912-0.147466-15.041475-1.327189-26.101382-14.599078-24.626728-29.640553 2.949309-32.147465 5.898618-71.520737 5.456221-79.18894-1.62212-14.746544 8.995392-28.165899 23.741935-30.082949 14.894009-1.917051 28.608295 8.700461 30.37788 23.741935 1.474654 11.797235-2.064516 55.741935-5.308755 90.543779-1.327189 14.156682-13.124424 24.774194-27.133641 24.774194z" fill="#2E9571" p-id="31545"></path><path d="M971.502304 497.105991c-0.884793 0-1.917051 0-2.801843-0.147466-8.258065-0.737327-15.631336-4.718894-20.940092-11.059907-5.308756-6.341014-7.815668-14.304147-7.078341-22.562212 2.949309-32 5.751152-71.078341 5.456221-78.599079-1.769585-16.663594 10.322581-31.852535 26.83871-33.917051 1.327189-0.147465 2.506912-0.294931 3.834101-0.29493 15.483871 0 28.75576 11.64977 30.672811 27.13364 1.179724 9.732719-0.589862 40.40553-5.308756 91.281106-1.327189 16.073733-14.599078 28.165899-30.672811 28.165899z m5.308756-139.354839c-1.032258 0-1.917051 0-2.949309 0.147466-12.829493 1.62212-22.119816 13.271889-20.645161 26.101382v0.147465c0.442396 7.963134-2.359447 46.746544-5.456221 79.778802-0.589862 6.341014 1.327189 12.387097 5.308755 17.253457 3.981567 4.866359 9.732719 7.815668 16.073733 8.405529 0.737327 0 1.474654 0.147465 2.211982 0.147466 12.239631 0 22.414747-9.290323 23.59447-21.529954 4.571429-48.958525 6.341014-80.81106 5.308756-89.806452-1.327189-11.64977-11.502304-20.645161-23.447005-20.645161z" fill="#2E9570" p-id="31546"></path></svg>