<?xml version="1.0" standalone="no"?><!DOCTYPE svg PUBLIC "-//W3C//DTD SVG 1.1//EN" "http://www.w3.org/Graphics/SVG/1.1/DTD/svg11.dtd"><svg t="1776324981435" class="icon" viewBox="0 0 1024 1024" version="1.1" xmlns="http://www.w3.org/2000/svg" p-id="51815" xmlns:xlink="http://www.w3.org/1999/xlink" width="200" height="200"><path d="M759.73 314.22C759.73 175.78 651 67 512.51 67S265.29 175.78 265.29 314.22c0 94.37 50.55 175 126.59 216.69-144.08 46.64-250.45 174.51-270 327.2l-0.35 1.6v0.35l-5.54 48.78 50.46-1.28c0-177.9 151.72-327.09 324.65-347 7.07 0.58 14.23 0.9 21.47 0.9 138.43-0.02 247.16-108.8 247.16-247.24z m-445 0c0-108.78 89-197.78 197.78-197.78s197.78 89 197.78 197.78S621.29 512 512.51 512c-108.77 0-197.78-89-197.78-197.79zM908.07 512v-49.45H759.74v249.61c-57 11.18-98.9 60.49-98.9 121.23 0 69.22 54.39 123.61 123.61 123.61s123.61-54.39 123.61-123.61c0-60.73-41.86-110-98.88-121.22V610.88h98.89v-49.44h-98.89V512z m-49.44 321.39c0 39.56-34.61 74.17-74.18 74.17s-74.16-34.56-74.16-74.17 34.6-74.17 74.16-74.17 74.18 34.61 74.18 74.17z" fill="#1afa29" p-id="51816"></path></svg>